<svg width="64" height="64" viewBox="0 0 64 64" fill="none" xmlns="http://www.w3.org/2000/svg">
  <!-- Background circle -->
  <circle cx="32" cy="32" r="30" fill="url(#gradient)" stroke="#e5e7eb" stroke-width="2"/>
  
  <!-- Letter "P" -->
  <path d="M18 20h8c4.4 0 8 3.6 8 8s-3.6 8-8 8h-4v8h-4V20zm4 12h4c2.2 0 4-1.8 4-4s-1.8-4-4-4h-4v8z" 
        fill="white" opacity="0.9"/>
  
  <!-- Tech elements -->
  <!-- Code brackets -->
  <path d="M42 18h4v2h-2v8h2v2h-4v-2h2v-6h-2v-2z" fill="white" opacity="0.7"/>
  <path d="M50 18h4v2h-2v8h2v2h-4v-2h2v-6h-2v-2z" fill="white" opacity="0.7"/>
  
  <!-- Small dots representing portfolio items -->
  <circle cx="46" cy="32" r="1.5" fill="white" opacity="0.8"/>
  <circle cx="50" cy="28" r="1" fill="white" opacity="0.6"/>
  <circle cx="50" cy="36" r="1" fill="white" opacity="0.6"/>
  
  <!-- Gradient definition -->
  <defs>
    <linearGradient id="gradient" x1="0%" y1="0%" x2="100%" y2="100%">
      <stop offset="0%" style="stop-color:#3b82f6;stop-opacity:1" />
      <stop offset="50%" style="stop-color:#8b5cf6;stop-opacity:1" />
      <stop offset="100%" style="stop-color:#06b6d4;stop-opacity:1" />
    </linearGradient>
  </defs>
</svg>
